# xmcd
#
# Track frame offsets:
# 150
# 5694
# 18800
# 32676
# 52125
# 68895
# 84170
# 105784
# 121875
# 139603
# 158487
# 170323
# 183551
# 202554
# 215533
#
# Disc length: 3031 seconds
#
#
# Revision: 0
# Processed by: cddbd v1.5.2PL0 Copyright (c) Steve Scherf et al.
# Submitted via: FreeRIP 2.96 
#
DISCID=b10bd50f
DTITLE=Banda Banupd - Banda Banupd ao vivo
DYEAR=2006
DGENRE=Forro
TTITLE0=abertura
TTITLE1=vem ca meu dengo meu mel
TTITLE2=banupd e bom demais
TTITLE3=somos loucos, patricinha e mauricinho
TTITLE4=meu dengo
TTITLE5=chorando se foi
TTITLE6=chibil e ceu da boca
TTITLE7=venha me amar
TTITLE8=danca da bundinha
TTITLE9=no compasso da paixao e coracao
TTITLE10=dois em um
TTITLE11=parado tambem danca
TTITLE12=barquinho e fom fom fom
TTITLE13=sou peao de primeira
TTITLE14=brasileirinho e milonga
EXTD=
EXTT0=
EXTT1=
EXTT2=
EXTT3=
EXTT4=
EXTT5=
EXTT6=
EXTT7=
EXTT8=
EXTT9=
EXTT10=
EXTT11=
EXTT12=
EXTT13=
EXTT14=
PLAYORDER=
